<?xml version="1.0" standalone="no"?>
<!DOCTYPE svg PUBLIC "-//W3C//DTD SVG 1.0//EN" "http://www.w3.org/TR/2001/REC-SVG-20010904/DTD/svg10.dtd">
<svg xmlns="http://www.w3.org/2000/svg" xmlns:xlink="http://www.w3.org/1999/xlink" id="body_1" width="776" height="764">

<g transform="matrix(0.9995878 0 0 0.9999337 0 0)">
    <path d="M226.88 373.9706C 226.88 342.64502 215.80475 315.90698 193.6542 293.7564C 171.50366 271.6059 144.7656 260.5306 113.44 260.5306C 82.11441 260.5306 55.37635 271.6059 33.225807 293.7564C 11.07527 315.90698 0 342.64502 0 373.9706C 0 405.2962 11.07527 432.0343 33.225807 454.1848C 55.37635 476.3354 82.11441 487.41064 113.44 487.4106C 144.7656 487.41064 171.50366 476.3354 193.6542 454.1848C 215.80475 432.0343 226.88 405.2962 226.88 373.9706" stroke="none" fill="#F2F2F2" fill-rule="nonzero" />
	<g>
	</g>
    <path d="M159.68976 333.4638C 159.68976 320.97217 155.2733 310.30988 146.44037 301.47696C 137.60745 292.64404 126.945175 288.2276 114.45354 288.2276C 101.9619 288.2276 91.29962 292.64404 82.4667 301.47696C 73.63377 310.30988 69.217316 320.97217 69.217316 333.4638C 69.217316 345.95544 73.63377 356.61774 82.4667 365.45065C 91.29962 374.28357 101.9619 378.7 114.45354 378.7C 126.945175 378.7 137.60745 374.28357 146.44037 365.45065C 155.2733 356.61774 159.68976 345.95544 159.68976 333.4638" stroke="none" fill="#2F2E41" fill-rule="nonzero" />
	<g>
	</g>
	<g transform="matrix(1 0 0 1 -211.84 -67.97468)">
	</g>
    <path transform="matrix(1 0 0 1 -211.84 -67.97468)"  d="M439.33463 181.61581C 439.2235 244.26688 388.34473 294.96558 325.69366 294.85446C 263.04257 294.74338 212.3439 243.8646 212.45499 181.21352C 212.56606 118.56245 263.44485 67.86374 326.09592 67.974815C 356.2061 67.95007 385.0842 79.92787 406.33752 101.2567C 427.59085 122.585526 439.46616 151.50595 439.33463 181.61581z" stroke="none" fill="#F2F2F2" fill-rule="nonzero" />
    <path d="M496.07 373.9706C 496.07 342.64502 484.99475 315.90698 462.8442 293.7564C 440.6937 271.6059 413.95563 260.5306 382.63 260.5306C 351.3044 260.5306 324.56635 271.6059 302.4158 293.7564C 280.26526 315.90698 269.19 342.64502 269.19 373.9706C 269.19 405.2962 280.26526 432.0343 302.4158 454.1848C 324.56635 476.3354 351.3044 487.41064 382.63 487.4106C 413.95563 487.41064 440.6937 476.3354 462.8442 454.1848C 484.99475 432.0343 496.07 405.2962 496.07 373.9706" stroke="none" fill="#F2F2F2" fill-rule="nonzero" />
	<g>
	</g>
    <path d="M495.74 113.44001C 495.74002 82.114426 484.66473 55.376354 462.5142 33.225815C 440.36365 11.075276 413.6256 7.6293945E-06 382.3 7.6293945E-06C 350.9744 7.6293945E-06 324.23633 11.075276 302.0858 33.225815C 279.93524 55.376354 268.86 82.114426 268.86 113.44001C 268.86 144.76561 279.93524 171.50368 302.0858 193.6542C 324.23633 215.80475 350.9744 226.88 382.3 226.88C 413.6256 226.88 440.36365 215.80475 462.5142 193.6542C 484.66473 171.50368 495.74002 144.76561 495.74 113.44001" stroke="none" fill="#F2F2F2" fill-rule="nonzero" />
	<g>
	</g>
    <path d="M772.22003 113.44001C 772.22003 82.114426 761.1448 55.376354 738.9942 33.225815C 716.8437 11.075276 690.10565 7.6293945E-06 658.78 7.6293945E-06C 627.45447 7.6293945E-06 600.7164 11.075276 578.56586 33.225815C 556.4153 55.376354 545.34 82.114426 545.34 113.44001C 545.34 144.76561 556.4153 171.50368 578.56586 193.6542C 600.7164 215.80475 627.45447 226.88 658.78 226.88C 690.10565 226.88 716.8437 215.80475 738.9942 193.6542C 761.1448 171.50368 772.22003 144.76561 772.22003 113.44001" stroke="none" fill="#F2F2F2" fill-rule="nonzero" />
	<g>
	</g>
    <path d="M776.32 373.9706C 776.32007 342.64502 765.24475 315.90698 743.0942 293.7564C 720.94366 271.6059 694.2056 260.5306 662.88 260.5306C 631.55444 260.5306 604.8164 271.6059 582.66583 293.7564C 560.51526 315.90698 549.44 342.64502 549.44 373.9706C 549.44 405.2962 560.51526 432.0343 582.66583 454.1848C 604.8164 476.3354 631.55444 487.41064 662.88 487.4106C 694.2056 487.41064 720.94366 476.3354 743.0942 454.1848C 765.24475 432.0343 776.32007 405.2962 776.32 373.9706" stroke="none" fill="#F2F2F2" fill-rule="nonzero" />
	<g>
	</g>
	<g transform="matrix(1 0 0 1 -211.84 -67.97468)">
	</g>
    <path transform="matrix(1 0 0 1 -211.84 -67.97468)"  d="M439.3348 718.58466C 439.3348 764.4668 411.69604 805.8311 369.30643 823.38947C 326.91678 840.9479 278.12424 831.24243 245.6806 798.79877C 213.237 766.35516 203.53156 717.5626 221.0899 675.173C 238.64827 632.7834 280.0126 605.1446 325.8948 605.14465C 356.02188 605.0105 384.95377 616.9191 406.25702 638.2224C 427.56027 659.5257 439.4689 688.4575 439.3348 718.58466z" stroke="none" fill="#F2F2F2" fill-rule="nonzero" />
    <path d="M503.03 650.61066C 503.03 619.2851 491.95474 592.547 469.8042 570.3965C 447.65366 548.246 420.9156 537.17065 389.59 537.17065C 358.26443 537.17065 331.52637 548.246 309.3758 570.3965C 287.22528 592.547 276.15002 619.2851 276.15 650.61066C 276.15002 681.9363 287.22528 708.6743 309.3758 730.8248C 331.52637 752.9754 358.26443 764.05066 389.59 764.05066C 420.9156 764.05066 447.65366 752.9754 469.8042 730.8248C 491.95474 708.6743 503.03 681.9363 503.03 650.61066" stroke="none" fill="#F2F2F2" fill-rule="nonzero" />
	<g>
	</g>
	<g transform="matrix(1 0 0 1 -211.84 -67.97468)">
	</g>
    <path transform="matrix(1 0 0 1 -211.84 -67.97468)"  d="M273.31638 144.51271C 278.00708 129.56364 288.6739 115.85288 303.4258 110.799286C 318.17862 105.745674 339.78046 113.44397 350.87128 124.497284C 371.1585 144.71594 376.10938 214.17441 362.17117 236.12405C 359.39883 235.97731 349.83252 235.86876 347.02658 235.76367L347.02658 235.76367L343.05725 222.534L343.05725 235.63322C 338.587 235.49509 334.0818 235.39972 329.54156 235.34709C 297.9046 234.95474 272.24573 209.607 271.4675 177.9772C 271.1043 163.41792 271.4679 150.40381 273.31638 144.51271z" stroke="none" fill="#2F2E41" fill-rule="nonzero" />
    <path d="M144.70193 93.75326C 144.70193 84.82568 141.54556 77.20552 135.2328 70.89278C 128.92006 64.580025 121.299904 61.423653 112.37232 61.42365C 103.44475 61.423653 95.824585 64.580025 89.51184 70.89278C 83.19909 77.20552 80.04271 84.82568 80.04271 93.75326C 80.04271 102.68083 83.19909 110.300995 89.51184 116.61374C 95.824585 122.9265 103.44475 126.08288 112.37232 126.08287C 121.299904 126.08288 128.92006 122.9265 135.2328 116.61374C 141.54556 110.300995 144.70193 102.68083 144.70193 93.75326" stroke="none" fill="#9E616A" fill-rule="nonzero" />
	<g>
	</g>
	<g transform="matrix(1 0 0 1 -211.84 -67.97468)">
	</g>
    <path transform="matrix(1 0 0 1 -211.84 -67.97468)"  d="M296.31088 133.33472L333.5353 114.695526C 349.03342 121.67929 359.52435 136.5195 360.9386 153.45953L360.9386 153.45953L361.86642 164.57335L346.27866 160.60535L344.5709 146.39418L341.92383 159.49683L334.7302 157.66649L334.79858 135.6037L327.60046 157.65076L301.90787 151.74791L296.31088 133.33472z" stroke="none" fill="#2F2E41" fill-rule="nonzero" />
    <path d="M367.49475 315.38843C 367.49475 310.9658 365.93112 307.19083 362.80383 304.06354C 359.67657 300.93628 355.9016 299.37262 351.47894 299.37262C 347.0563 299.37262 343.28134 300.93628 340.15405 304.06354C 337.0268 307.19083 335.46313 310.9658 335.46313 315.38843C 335.46313 319.8111 337.0268 323.58606 340.15405 326.71332C 343.28134 329.8406 347.0563 331.40424 351.47894 331.40424C 355.9016 331.40424 359.67657 329.8406 362.80383 326.71332C 365.93112 323.58606 367.49475 319.8111 367.49475 315.38843" stroke="none" fill="#2F2E41" fill-rule="nonzero" />
	<g>
	</g>
    <path d="M417.6776 351.69095C 417.6776 340.4869 413.7164 330.92368 405.79395 323.00122C 397.87152 315.0788 388.3083 311.11755 377.10422 311.11755C 365.90018 311.11755 356.33694 315.0788 348.4145 323.00122C 340.49207 330.92368 336.53082 340.4869 336.53082 351.69095C 336.53082 362.895 340.49207 372.45825 348.4145 380.38068C 356.33694 388.30316 365.90018 392.26437 377.10422 392.26434C 388.3083 392.26437 397.87152 388.30316 405.79395 380.38068C 413.7164 372.45825 417.6776 362.895 417.6776 351.69095" stroke="none" fill="#2F2E41" fill-rule="nonzero" />
	<g>
	</g>
    <path d="M413.43207 359.28384C 413.4321 350.17932 410.21313 342.4081 403.77524 335.9702C 397.33734 329.53235 389.56616 326.31342 380.4616 326.3134C 371.3571 326.31342 363.58588 329.53235 357.14798 335.9702C 350.71008 342.4081 347.49115 350.17932 347.49115 359.28384C 347.49115 368.3884 350.71008 376.1596 357.14798 382.59747C 363.58588 389.03537 371.3571 392.2543 380.4616 392.2543C 389.56616 392.2543 397.33734 389.03537 403.77524 382.59747C 410.21313 376.1596 413.4321 368.3884 413.43207 359.28384" stroke="none" fill="#9E616A" fill-rule="nonzero" />
	<g>
	</g>
	<g transform="matrix(1 0 0 1 -211.84 -67.97468)">
	</g>
    <path transform="matrix(1 0 0 1 -211.84 -67.97468)"  d="M614.69196 393.6497C 602.92456 386.47586 588.18384 386.28152 576.2314 393.1426C 564.279 400.00372 557.01294 412.83075 557.2733 426.61C 574.0735 430.82797 591.7231 434.05594 609.6393 427.6189L609.6393 427.6189L613.8703 417.2638L616.3647 427.6266C 621.82074 429.8567 627.29095 431.7436 632.76117 427.60504C 633.21576 413.8762 626.3329 400.94202 614.69196 393.6497z" stroke="none" fill="#2F2E41" fill-rule="nonzero" />
	<g transform="matrix(1 0 0 1 -211.84 -67.97468)">
	</g>
    <path transform="matrix(1 0 0 1 -211.84 -67.97468)"  d="M548.4072 339.8862C 537.33234 334.8082 523.43646 337.19095 514.21497 345.1535C 504.99338 353.11606 500.6094 366.07526 502.38968 378.12805C 504.2057 390.4237 511.68066 401.0119 518.57086 411.3563C 525.4611 421.70062 532.19257 433.03577 532.1849 445.46478C 532.1734 464.10388 517.0799 479.2181 498.44083 479.25513C 508.94748 483.7783 519.91364 488.39014 531.34 487.8539C 542.7665 487.31778 554.743 479.9721 556.6069 468.68604C 557.9499 460.554 553.9602 452.6242 550.6326 445.08356C 545.2126 432.79636 541.2949 419.90015 538.9646 406.67435C 537.8533 400.362 537.1296 393.72583 539.1876 387.65576C 542.5522 378.42084 551.5589 372.4712 561.3734 373.00034L561.3734 373.00034L565.14886 369.6037C 566.82825 357.53638 559.4821 344.96414 548.4072 339.8862z" stroke="none" fill="#2F2E41" fill-rule="nonzero" />
	<g transform="matrix(1 0 0 1 -211.84 -67.97468)">
	</g>
    <path transform="matrix(1 0 0 1 -211.84 -67.97468)"  d="M824.32324 137.04323C 822.7663 145.4082 820.21326 153.55666 816.7187 161.31454C 796.7077 203.64745 853.6951 189.84909 874.06055 189.84909C 896.32715 189.84909 917.63165 201.55785 914.3777 149.53188C 912.9878 127.30869 896.327 109.21466 874.06055 109.21466C 855.04126 109.2147 828.30023 117.66842 824.32324 137.04323z" stroke="none" fill="#2F2E41" fill-rule="nonzero" />
    <path d="M691.64667 89.10216C 691.64667 80.05511 688.44806 72.33296 682.05084 65.93573C 675.65356 59.538498 667.93146 56.33988 658.8844 56.339878C 649.8374 56.33988 642.11523 59.538498 635.71796 65.93573C 629.32074 72.33296 626.12213 80.05511 626.12213 89.10216C 626.12213 98.149216 629.32074 105.87135 635.71796 112.268585C 642.11523 118.66583 649.8374 121.86445 658.8844 121.86444C 667.93146 121.86445 675.65356 118.66583 682.05084 112.268585C 688.44806 105.87135 691.64667 98.149216 691.64667 89.10216" stroke="none" fill="#FFB6B6" fill-rule="nonzero" />
	<g>
	</g>
	<g transform="matrix(1 0 0 1 -211.84 -67.97468)">
	</g>
    <path transform="matrix(1 0 0 1 -211.84 -67.97468)"  d="M848.4754 123.68022C 860.16846 116.55167 874.81616 116.358536 886.6931 123.176315C 898.57007 129.9941 905.7903 142.74016 905.5315 156.43239C 888.8374 160.62378 871.2992 163.83131 853.4962 157.43492L853.4962 157.43492L849.2918 147.1452L846.8131 157.44254C 841.39154 159.65854 835.9558 161.53354 830.52014 157.42114C 830.0685 143.77896 836.90796 130.92645 848.4754 123.68022z" stroke="none" fill="#2F2E41" fill-rule="nonzero" />
    <path d="M154.88339 344.23108C 154.88339 333.07178 150.93799 323.5467 143.04715 315.65585C 135.15633 307.76505 125.631256 303.81964 114.47194 303.8196C 103.31262 303.81964 93.78755 307.76505 85.89672 315.65585C 78.00589 323.5467 74.06048 333.07178 74.06048 344.23108C 74.06048 355.3904 78.00589 364.91547 85.89672 372.8063C 93.78755 380.69714 103.31262 384.64258 114.47194 384.64255C 125.631256 384.64258 135.15633 380.69714 143.04715 372.8063C 150.93799 364.91547 154.88339 355.3904 154.88339 344.23108" stroke="none" fill="#FFB8B8" fill-rule="nonzero" />
	<g>
	</g>
    <path d="M421.50763 627.9625C 421.50763 618.4591 418.14767 610.3474 411.42773 603.6275C 404.70782 596.9076 396.59616 593.5476 387.0927 593.5476C 377.5893 593.5476 369.47763 596.9076 362.7577 603.6275C 356.03778 610.3474 352.6778 618.4591 352.6778 627.9625C 352.6778 637.46594 356.03778 645.57764 362.7577 652.29755C 369.47763 659.01746 377.5893 662.37744 387.0927 662.37744C 396.59616 662.37744 404.70782 659.01746 411.42773 652.29755C 418.14767 645.57764 421.50763 637.46594 421.50763 627.9625" stroke="none" fill="#9E616A" fill-rule="nonzero" />
	<g>
	</g>
    <path d="M423.9143 88.02086C 423.91434 77.806145 420.3029 69.08734 413.07996 61.864433C 405.8571 54.64154 397.13828 51.03009 386.92352 51.03009C 376.7088 51.03009 367.99 54.64154 360.7671 61.864433C 353.5442 69.08734 349.93274 77.806145 349.93274 88.02086C 349.93274 98.23558 353.5442 106.95439 360.7671 114.177284C 367.99 121.400185 376.7088 125.01163 386.92352 125.01163C 397.13828 125.01163 405.8571 121.400185 413.07996 114.177284C 420.3029 106.95439 423.91434 98.23558 423.9143 88.02086" stroke="none" fill="#FFB8B8" fill-rule="nonzero" />
	<g>
	</g>
	<g transform="matrix(1 0 0 1 -211.84 -67.97468)">
	</g>
    <path transform="matrix(1 0 0 1 -211.84 -67.97468)"  d="M631.33264 131.55875C 631.33264 131.55875 640.96375 113.146996 619.775 111.473175C 619.775 111.473175 601.7115 95.08717 583.2997 108.47758C 583.2997 108.47758 573.2569 108.47758 567.76514 119.842155C 567.76514 119.842155 559.8665 116.84656 558.13074 124.86355C 558.13074 124.86355 552.3511 141.60155 558.13074 156.66574C 563.9104 171.72993 565.83014 173.40375 565.83014 173.40375C 565.83014 173.40375 561.775 154.70993 584.8919 153.03612C 608.0088 151.3623 629.21643 136.88052 631.14294 155.29227C 633.06946 173.70401 635.1873 165.38672 635.1873 165.38672C 635.1873 165.38672 653.4852 139.09088 631.33264 131.55875z" stroke="none" fill="#2F2E41" fill-rule="nonzero" />
    <path d="M695.96027 351.8121C 695.96027 341.81262 692.4249 333.27756 685.35425 326.20688C 678.28357 319.13617 669.74854 315.60083 659.749 315.60083C 649.7496 315.60083 641.2145 319.13617 634.1438 326.20688C 627.0731 333.27756 623.5378 341.81262 623.5378 351.8121C 623.5378 361.81158 627.0731 370.34665 634.1438 377.41733C 641.2145 384.48804 649.7496 388.02338 659.749 388.02338C 669.74854 388.02338 678.28357 384.48804 685.35425 377.41733C 692.4249 370.34665 695.96027 361.81158 695.96027 351.8121" stroke="none" fill="#FFB6B6" fill-rule="nonzero" />
	<g>
	</g>
	<g transform="matrix(1 0 0 1 -211.84 -67.97468)">
	</g>
    <path transform="matrix(1 0 0 1 -211.84 -67.97468)"  d="M372.2893 691.44196L372.2893 691.4419L371.728 692.4537C 376.724 680.141 372.181 664.9688 363.26852 655.6847C 354.3564 646.4005 341.96652 642.1561 329.76654 640.4722C 320.7099 639.2222 311.30927 639.2583 302.69778 642.57574C 290.22723 647.37976 280.6995 658.50073 272.74463 670.06964C 269.10593 675.36115 265.52838 681.3936 265.89084 688.0074C 266.22736 694.14496 269.87048 699.35333 272.85397 704.56055C 275.83777 709.76776 278.32928 716.2282 276.188 721.91156C 274.912 725.29834 272.21518 727.73755 270.02698 730.5081C 267.83878 733.2787 266.0388 737.0234 267.0958 740.4996C 268.05038 743.205 270.35687 745.2095 273.16898 745.7776C 275.81424 746.39404 278.55853 745.9912 281.2376 745.5864L281.2376 745.5864L350.77716 735.08C 360.3681 733.63086 368.64288 727.58014 372.93176 718.88007C 377.2206 710.18 376.98065 699.93176 372.2893 691.44196z" stroke="none" fill="#2F2E41" fill-rule="nonzero" />
    <path transform="matrix(0.16018212 -0.9870875 0.9870875 0.16018212 -634.17365 836.82355)"  d="M354.5638 700.596C 354.56384 691.2074 351.24445 683.1937 344.60568 676.55493C 337.96692 669.91614 329.95322 666.59674 320.56458 666.59674C 311.17596 666.59674 303.16223 669.91614 296.52347 676.55493C 289.8847 683.1937 286.56534 691.2074 286.56534 700.596C 286.56534 709.9846 289.8847 717.99835 296.52347 724.6371C 303.16223 731.2759 311.17596 734.5953 320.56458 734.5953C 329.95322 734.5953 337.96692 731.2759 344.60568 724.6371C 351.24445 717.99835 354.56384 709.9846 354.5638 700.596" stroke="none" fill="#FFB9B9" fill-rule="nonzero" />
	<g transform="matrix(0.16018212 -0.9870875 0.9870875 0.16018212 -634.17365 836.82355)">
	</g>
	<g transform="matrix(1 0 0 1 -211.84 -67.97468)">
	</g>
    <path transform="matrix(1 0 0 1 -211.84 -67.97468)"  d="M411.0748 793.4846C 370.18326 840.01294 299.52167 845.1197 252.36479 804.9546L252.36479 804.9546L262.0948 777.80457C 266.57547 767.978 276.11462 761.4275 286.89478 760.77454L286.89478 760.77454L293.08478 760.39453L307.8448 747.66455C 307.8448 747.66455 347.61478 746.24457 347.02478 745.5646L347.02478 745.5646L371.11478 760.05457L371.0948 759.9546L380.5648 760.5346C 391.3459 761.1848 400.88632 767.7362 405.36478 777.56464L405.36478 777.56464L411.0748 793.4846z" stroke="none" fill="#E5B86C" fill-rule="nonzero" />
	<g transform="matrix(1 0 0 1 -211.84 -67.97468)">
	</g>
    <path transform="matrix(1 0 0 1 -211.84 -67.97468)"  d="M685.0748 793.4846C 644.1833 840.013 573.5217 845.1197 526.3648 804.9546L526.3648 804.9546L536.0948 777.80457C 540.5755 767.978 550.1146 761.4275 560.8948 760.77454L560.8948 760.77454L567.0848 760.39453L581.8448 747.66455C 581.8448 747.66455 621.6148 746.24457 621.0248 745.5646L621.0248 745.5646L645.1148 760.05457L645.0948 759.9546L654.56476 760.5346C 665.34576 761.1848 674.8862 767.7362 679.36475 777.56464L679.36475 777.56464L685.0748 793.4846z" stroke="none" fill="#E5B86C" fill-rule="nonzero" />
	<g transform="matrix(1 0 0 1 -211.84 -67.97468)">
	</g>
    <path transform="matrix(1 0 0 1 -211.84 -67.97468)"  d="M352.81363 669.04065C 351.93597 664.39777 347.20062 662.27423 343.14343 661.24524C 331.3752 658.24274 319.1334 657.5705 307.1072 659.2664C 298.34027 660.51666 289.3653 663.2735 283.00415 670.11646C 277.87485 675.8784 274.96854 683.2807 274.8074 690.9933C 274.548 695.60486 275.5784 700.19745 277.783 704.25616C 280.07227 708.1307 283.974 710.94104 288.00186 710.84235L288.00186 710.84235L288.40976 712.261C 305.47968 709.8827 321.33612 699.2616 331.32266 683.5171C 329.4484 690.20966 325.71848 696.2352 320.56403 700.8973C 332.0885 696.28595 342.1063 688.56537 349.50116 678.59576C 351.52054 675.9155 353.48117 672.573 352.81363 669.04065z" stroke="none" fill="#2F2E41" fill-rule="nonzero" />
	<g transform="matrix(1 0 0 1 -211.84 -67.97468)">
	</g>
    <path transform="matrix(1 0 0 1 -211.84 -67.97468)"  d="M410.0748 516.4846C 369.18326 563.01294 298.52167 568.1197 251.36479 527.9546L251.36479 527.9546L261.0948 500.8046C 265.5755 490.9781 275.11465 484.4276 285.89478 483.7746L285.89478 483.7746L292.08478 483.3946L306.8448 470.66458C 306.8448 470.66458 346.61478 469.24457 346.02478 468.56458L346.02478 468.56458L370.11478 483.05457L370.0948 482.95456L379.5648 483.53455C 390.34586 484.18478 399.88632 490.73618 404.36478 500.56454L404.36478 500.56454L410.0748 516.4846z" stroke="none" fill="#E5B86C" fill-rule="nonzero" />
	<g transform="matrix(1 0 0 1 -211.84 -67.97468)">
	</g>
    <path transform="matrix(1 0 0 1 -211.84 -67.97468)"  d="M679.825 517.8453C 638.9334 564.37366 568.2718 569.48035 521.115 529.31525L521.115 529.31525L530.845 502.16525C 535.3257 492.33875 544.86487 485.78827 555.64496 485.13525L555.64496 485.13525L561.83496 484.75525L576.595 472.02524C 576.595 472.02524 616.365 470.6052 615.77496 469.92523L615.77496 469.92523L639.865 484.41522L639.845 484.31522L649.31494 484.8952C 660.09607 485.54544 669.63654 492.0968 674.1149 501.9252L674.1149 501.9252L679.825 517.8453z" stroke="none" fill="#E5B86C" fill-rule="nonzero" />
	<g transform="matrix(1 0 0 1 -211.84 -67.97468)">
	</g>
    <path transform="matrix(1 0 0 1 -211.84 -67.97468)"  d="M959.825 517.8453C 918.9334 564.37366 848.2718 569.48035 801.115 529.31525L801.115 529.31525L810.845 502.16525C 815.3257 492.33875 824.86487 485.78827 835.64496 485.13525L835.64496 485.13525L841.83496 484.75525L856.595 472.02524C 856.595 472.02524 896.365 470.6052 895.77496 469.92523L895.77496 469.92523L919.865 484.41522L919.845 484.31522L929.31494 484.8952C 940.09607 485.54544 949.63654 492.0968 954.1149 501.9252L954.1149 501.9252L959.825 517.8453z" stroke="none" fill="#E5B86C" fill-rule="nonzero" />
	<g transform="matrix(1 0 0 1 -211.84 -67.97468)">
	</g>
    <path transform="matrix(1 0 0 1 -211.84 -67.97468)"  d="M410.0748 256.48465C 369.18323 303.01303 298.52167 308.11975 251.36479 267.95465L251.36479 267.95465L261.0948 240.80466C 265.5755 230.97813 275.11465 224.42766 285.89478 223.77466L285.89478 223.77466L292.08478 223.39465L306.8448 210.66466C 306.8448 210.66466 346.61478 209.24466 346.02478 208.56465L346.02478 208.56465L370.11478 223.05466L370.0948 222.95465L379.5648 223.53465C 390.34586 224.18486 399.88632 230.73622 404.36478 240.56465L404.36478 240.56465L410.0748 256.48465z" stroke="none" fill="#E5B86C" fill-rule="nonzero" />
	<g transform="matrix(1 0 0 1 -211.84 -67.97468)">
	</g>
    <path transform="matrix(1 0 0 1 -211.84 -67.97468)"  d="M678.825 256.84525C 637.9334 303.37366 567.27185 308.48038 520.115 268.31525L520.115 268.31525L529.845 241.16525C 534.3257 231.33873 543.86487 224.78825 554.64496 224.13525L554.64496 224.13525L560.83496 223.75525L575.595 211.02525C 575.595 211.02525 615.365 209.60521 614.77496 208.92525L614.77496 208.92525L638.865 223.41525L638.845 223.31525L648.31494 223.89525C 659.09607 224.54546 668.63654 231.09683 673.1149 240.92525L673.1149 240.92525L678.825 256.84525z" stroke="none" fill="#E5B86C" fill-rule="nonzero" />
	<g transform="matrix(1 0 0 1 -211.84 -67.97468)">
	</g>
    <path transform="matrix(1 0 0 1 -211.84 -67.97468)"  d="M958.825 256.84525C 917.9334 303.37366 847.27185 308.48038 800.115 268.31525L800.115 268.31525L809.845 241.16525C 814.3257 231.33873 823.86487 224.78825 834.64496 224.13525L834.64496 224.13525L840.83496 223.75525L855.595 211.02525C 855.595 211.02525 895.365 209.60521 894.77496 208.92525L894.77496 208.92525L918.865 223.41525L918.845 223.31525L928.31494 223.89525C 939.09607 224.54546 948.63654 231.09683 953.1149 240.92525L953.1149 240.92525L958.825 256.84525z" stroke="none" fill="#E5B86C" fill-rule="nonzero" />
	<g transform="matrix(1 0 0 1 -211.84 -67.97468)">
	</g>
    <path transform="matrix(1 0 0 1 -211.84 -67.97468)"  d="M909.7799 397.32928C 906.7199 386.37692 899.76764 376.91797 890.2282 370.728C 882.6258 365.86545 873.1393 363.383 864.52655 365.9545C 855.9138 368.526 848.78314 376.9783 849.3469 386.11063C 846.2381 385.0527 842.70374 386.46017 840.42804 388.8649C 838.15234 391.26968 836.92865 394.5045 836.05225 397.72446C 833.28845 407.96347 833.47156 418.77475 836.5805 428.91428L836.5805 428.91428L836.4095 430.3696C 840.6114 429.67447 843.7986 426.06918 845.78046 422.228C 847.7623 418.3868 848.9029 414.12534 851.05096 410.37808C 853.19904 406.6309 856.7661 403.28818 861.0214 403.17123L861.0214 403.17123L860.6464 409.6758C 864.30756 407.7896 867.9686 405.90338 871.6296 404.01712C 874.8006 396.79977 884.6067 393.62924 891.27734 397.66446C 895.1515 400.00803 897.6932 404.18454 899.03015 408.5706C 900.3671 412.95663 900.63153 417.5964 900.8867 422.18204C 906.13477 414.90182 909.2177 406.2863 909.7799 397.32928z" stroke="none" fill="#2F2E41" fill-rule="nonzero" />
	<g transform="matrix(1 0 0 1 -211.84 -67.97468)">
	</g>
    <path transform="matrix(1 0 0 1 -211.84 -67.97468)"  d="M567.6629 711.848C 567.59515 711.6598 567.53357 711.46936 567.46674 711.28076C 567.3342 711.39746 567.2073 711.51794 567.0636 711.62695L567.0636 711.62695L567.6629 711.848z" stroke="none" fill="#2F2E41" fill-rule="nonzero" />
	<g transform="matrix(1 0 0 1 -211.84 -67.97468)">
	</g>
    <path transform="matrix(1 0 0 1 -211.84 -67.97468)"  d="M640.15814 683.694C 639.801 676.63055 636.4383 670.05756 630.9191 665.63513C 628.91345 664.04895 626.5933 662.7095 625.26544 660.52423C 624.5082 658.9772 623.8663 657.3763 623.34485 655.7346C 620.70294 649.4463 613.1736 646.10425 606.4196 647.05646C 599.66565 648.00867 593.8206 652.55176 589.8836 658.12164C 585.9226 656.22363 581.21936 656.8033 577.8377 659.60614C 574.45605 662.40906 573.0139 666.9231 574.14404 671.1675C 570.6465 668.3499 564.98895 670.6037 562.80566 674.5286C 560.62244 678.4535 560.96893 683.25616 561.61804 687.7003C 562.7939 695.7323 564.7528 703.6301 567.4667 711.2807C 570.8722 708.2818 570.6629 702.82043 570.2467 698.2038C 569.8143 693.4076 570.07336 687.5518 574.2674 685.18506C 578.31946 682.8985 583.23755 685.4089 587.7054 686.70734C 594.8544 688.73193 602.53143 687.52435 608.7135 683.40283C 611.0409 681.82806 613.11285 679.8557 615.62177 678.5901C 618.1307 677.32446 621.32336 676.88495 623.65924 678.4471C 625.7924 679.87366 626.65985 682.5345 627.3857 684.9959C 629.10596 690.8295 630.82623 696.66315 632.54645 702.4967C 637.6545 697.6051 640.4249 690.7614 640.15814 683.694z" stroke="none" fill="#2F2E41" fill-rule="nonzero" />
	<g transform="matrix(1 0 0 1 -211.84 -67.97468)">
	</g>
    <path transform="matrix(1 0 0 1 -211.84 -67.97468)"  d="M368.94672 398.03333C 369.2302 395.01617 369.3601 391.98657 369.336 388.95624C 369.5011 382.96304 368.403 377.0022 366.11316 371.46124C 363.29688 365.32614 358.2755 360.47516 352.04688 357.87225C 345.87323 355.38214 338.97357 355.38818 332.80426 357.8891C 327.23425 354.37 321.04553 351.5802 314.52795 351.23462C 308.0103 350.8891 301.11932 353.30707 297.10284 358.6297C 296.20593 360.0347 295.18726 361.3581 294.05853 362.5847C 290.82996 365.57455 285.9234 365.14328 281.63208 364.53195C 283.55682 366.1816 285.4821 367.83124 287.40784 369.48087C 279.51453 374.2186 275.92685 384.55936 276.87457 393.95096C 277.77112 402.84256 282.0639 410.97336 287.1956 418.20023C 289.24265 413.88034 288.80157 408.7112 288.7678 403.8458C 288.74905 402.26767 288.84534 400.69028 289.05588 399.12613C 306.39853 403.28336 324.51944 405.9514 342.8962 399.3488L342.8962 399.3488L346.58408 390.32297C 347.1016 390.3762 347.61942 390.42618 348.1367 390.48117L348.1367 390.48117L350.27322 399.35718C 355.11722 401.3371 359.97134 403.0675 364.82736 401.24918C 365.06363 402.62018 365.2059 404.01932 365.31522 405.3641C 365.73196 403.75552 366.09354 402.13504 366.4196 400.50812C 367.06137 400.16382 367.676 399.77118 368.2582 399.33362C 368.4958 398.90448 368.7253 398.47098 368.94672 398.03333z" stroke="none" fill="#2F2E41" fill-rule="nonzero" />
</g>
</svg>